{
	"patcher" : 	{
		"fileversion" : 1,
		"appversion" : 		{
			"major" : 8,
			"minor" : 1,
			"revision" : 8,
			"architecture" : "x64",
			"modernui" : 1
		}
,
		"classnamespace" : "box",
		"rect" : [ 763.0, 322.0, 720.0, 676.0 ],
		"bglocked" : 0,
		"openinpresentation" : 1,
		"default_fontsize" : 12.0,
		"default_fontface" : 0,
		"default_fontname" : "Arial",
		"gridonopen" : 1,
		"gridsize" : [ 15.0, 15.0 ],
		"gridsnaponopen" : 1,
		"objectsnaponopen" : 1,
		"statusbarvisible" : 2,
		"toolbarvisible" : 1,
		"lefttoolbarpinned" : 0,
		"toptoolbarpinned" : 0,
		"righttoolbarpinned" : 0,
		"bottomtoolbarpinned" : 0,
		"toolbars_unpinned_last_save" : 0,
		"tallnewobj" : 0,
		"boxanimatetime" : 200,
		"enablehscroll" : 1,
		"enablevscroll" : 1,
		"devicewidth" : 0.0,
		"description" : "",
		"digest" : "",
		"tags" : "",
		"style" : "",
		"subpatcher_template" : "",
		"assistshowspatchername" : 0,
		"boxes" : [ 			{
				"box" : 				{
					"id" : "obj-25",
					"linecount" : 4,
					"maxclass" : "comment",
					"numinlets" : 1,
					"numoutlets" : 0,
					"patching_rect" : [ 17.5, 591.0, 19.0, 62.0 ],
					"presentation" : 1,
					"presentation_linecount" : 4,
					"presentation_rect" : [ 17.893617272377014, 4.645007040744758, 19.0, 62.0 ],
					"text" : "N\no\nt\ne"
				}

			}
, 			{
				"box" : 				{
					"id" : "obj-12",
					"maxclass" : "comment",
					"numinlets" : 1,
					"numoutlets" : 0,
					"patching_rect" : [ 66.5, 593.0, 47.0, 20.0 ],
					"presentation" : 1,
					"presentation_rect" : [ 89.234042286872864, 94.708836820369697, 47.0, 20.0 ],
					"text" : "Octave"
				}

			}
, 			{
				"box" : 				{
					"id" : "obj-26",
					"maxclass" : "live.slider",
					"numinlets" : 1,
					"numoutlets" : 2,
					"outlettype" : [ "", "float" ],
					"parameter_enable" : 1,
					"patching_rect" : [ 451.315787, 149.796295702457428, 39.0, 95.0 ],
					"presentation" : 1,
					"presentation_rect" : [ 184.382977604866028, 4.645007040744758, 39.0, 82.0 ],
					"saved_attribute_attributes" : 					{
						"valueof" : 						{
							"parameter_longname" : "Probability",
							"parameter_mmax" : 1.0,
							"parameter_shortname" : "prob",
							"parameter_type" : 0,
							"parameter_unitstyle" : 1
						}

					}
,
					"varname" : "live.slider"
				}

			}
, 			{
				"box" : 				{
					"id" : "obj-24",
					"maxclass" : "newobj",
					"numinlets" : 2,
					"numoutlets" : 1,
					"outlettype" : [ "int" ],
					"patching_rect" : [ 340.0, 133.0, 29.5, 22.0 ],
					"text" : "- 1"
				}

			}
, 			{
				"box" : 				{
					"id" : "obj-23",
					"maxclass" : "comment",
					"numinlets" : 1,
					"numoutlets" : 0,
					"patching_rect" : [ 271.315787434577942, 98.15789270401001, 66.0, 20.0 ],
					"text" : "Note index"
				}

			}
, 			{
				"box" : 				{
					"id" : "obj-6",
					"maxclass" : "newobj",
					"numinlets" : 1,
					"numoutlets" : 1,
					"outlettype" : [ "" ],
					"patching_rect" : [ 340.411760568618774, 63.368411269432045, 71.0, 22.0 ],
					"text" : "fromsymbol"
				}

			}
, 			{
				"box" : 				{
					"id" : "obj-8",
					"maxclass" : "number",
					"maximum" : 8,
					"minimum" : 0,
					"numinlets" : 1,
					"numoutlets" : 2,
					"outlettype" : [ "", "bang" ],
					"parameter_enable" : 0,
					"patching_rect" : [ 340.411760568618774, 98.15789270401001, 50.0, 22.0 ]
				}

			}
, 			{
				"box" : 				{
					"id" : "obj-1",
					"maxclass" : "live.text",
					"mode" : 0,
					"numinlets" : 1,
					"numoutlets" : 2,
					"outlettype" : [ "", "" ],
					"parameter_enable" : 1,
					"patching_rect" : [ 339.411760568618774, 26.500003269432057, 17.0, 17.0 ],
					"presentation" : 1,
					"presentation_rect" : [ -1.106382727622986, 1.645007040744758, 17.0, 17.0 ],
					"saved_attribute_attributes" : 					{
						"valueof" : 						{
							"parameter_enum" : [ "val1", "val2" ],
							"parameter_longname" : "live.text[8]",
							"parameter_mmax" : 1,
							"parameter_shortname" : "live.text",
							"parameter_type" : 2
						}

					}
,
					"text" : "1",
					"varname" : "live.text[8]"
				}

			}
, 			{
				"box" : 				{
					"id" : "obj-2",
					"maxclass" : "live.text",
					"mode" : 0,
					"numinlets" : 1,
					"numoutlets" : 2,
					"outlettype" : [ "", "" ],
					"parameter_enable" : 1,
					"patching_rect" : [ 356.411760568618774, 26.500003269432057, 17.0, 17.0 ],
					"presentation" : 1,
					"presentation_rect" : [ -1.106382727622986, 20.645007040744758, 17.0, 17.0 ],
					"saved_attribute_attributes" : 					{
						"valueof" : 						{
							"parameter_enum" : [ "val1", "val2" ],
							"parameter_longname" : "live.text[9]",
							"parameter_mmax" : 1,
							"parameter_shortname" : "live.text",
							"parameter_type" : 2
						}

					}
,
					"text" : "2",
					"varname" : "live.text[9]"
				}

			}
, 			{
				"box" : 				{
					"id" : "obj-3",
					"maxclass" : "live.text",
					"mode" : 0,
					"numinlets" : 1,
					"numoutlets" : 2,
					"outlettype" : [ "", "" ],
					"parameter_enable" : 1,
					"patching_rect" : [ 390.411760568618774, 26.500003269432057, 17.0, 17.0 ],
					"presentation" : 1,
					"presentation_rect" : [ -1.106382727622986, 58.645007040744758, 17.0, 17.0 ],
					"saved_attribute_attributes" : 					{
						"valueof" : 						{
							"parameter_enum" : [ "val1", "val2" ],
							"parameter_longname" : "live.text[10]",
							"parameter_mmax" : 1,
							"parameter_shortname" : "live.text",
							"parameter_type" : 2
						}

					}
,
					"text" : "4",
					"varname" : "live.text[10]"
				}

			}
, 			{
				"box" : 				{
					"id" : "obj-4",
					"maxclass" : "live.text",
					"mode" : 0,
					"numinlets" : 1,
					"numoutlets" : 2,
					"outlettype" : [ "", "" ],
					"parameter_enable" : 1,
					"patching_rect" : [ 373.411760568618774, 26.500003269432057, 17.0, 17.0 ],
					"presentation" : 1,
					"presentation_rect" : [ -1.106382727622986, 39.645007040744758, 17.0, 17.0 ],
					"saved_attribute_attributes" : 					{
						"valueof" : 						{
							"parameter_enum" : [ "val1", "val2" ],
							"parameter_longname" : "live.text[11]",
							"parameter_mmax" : 1,
							"parameter_shortname" : "live.text",
							"parameter_type" : 2
						}

					}
,
					"text" : "3",
					"varname" : "live.text[11]"
				}

			}
, 			{
				"box" : 				{
					"id" : "obj-22",
					"maxclass" : "newobj",
					"numinlets" : 1,
					"numoutlets" : 1,
					"outlettype" : [ "" ],
					"patching_rect" : [ 531.0, 203.368411269432045, 71.0, 22.0 ],
					"text" : "fromsymbol"
				}

			}
, 			{
				"box" : 				{
					"id" : "obj-18",
					"maxclass" : "live.text",
					"mode" : 0,
					"numinlets" : 1,
					"numoutlets" : 2,
					"outlettype" : [ "", "" ],
					"parameter_enable" : 1,
					"patching_rect" : [ 548.0, 154.368411269432045, 17.0, 17.0 ],
					"presentation" : 1,
					"presentation_rect" : [ 61.787233829498291, 75.708836820369697, 17.0, 17.0 ],
					"saved_attribute_attributes" : 					{
						"valueof" : 						{
							"parameter_enum" : [ "val1", "val2" ],
							"parameter_longname" : "live.text[4]",
							"parameter_mmax" : 1,
							"parameter_shortname" : "live.text",
							"parameter_type" : 2
						}

					}
,
					"text" : "1",
					"varname" : "live.text[4]"
				}

			}
, 			{
				"box" : 				{
					"id" : "obj-19",
					"maxclass" : "live.text",
					"mode" : 0,
					"numinlets" : 1,
					"numoutlets" : 2,
					"outlettype" : [ "", "" ],
					"parameter_enable" : 1,
					"patching_rect" : [ 565.0, 154.368411269432045, 17.0, 17.0 ],
					"presentation" : 1,
					"presentation_rect" : [ 78.787233829498291, 75.708836820369697, 17.0, 17.0 ],
					"saved_attribute_attributes" : 					{
						"valueof" : 						{
							"parameter_enum" : [ "val1", "val2" ],
							"parameter_longname" : "live.text[5]",
							"parameter_mmax" : 1,
							"parameter_shortname" : "live.text",
							"parameter_type" : 2
						}

					}
,
					"text" : "2",
					"varname" : "live.text[5]"
				}

			}
, 			{
				"box" : 				{
					"id" : "obj-20",
					"maxclass" : "live.text",
					"mode" : 0,
					"numinlets" : 1,
					"numoutlets" : 2,
					"outlettype" : [ "", "" ],
					"parameter_enable" : 1,
					"patching_rect" : [ 616.0, 154.368411269432045, 17.0, 17.0 ],
					"presentation" : 1,
					"presentation_rect" : [ 129.787233829498291, 75.708836820369697, 17.0, 17.0 ],
					"saved_attribute_attributes" : 					{
						"valueof" : 						{
							"parameter_enum" : [ "val1", "val2" ],
							"parameter_longname" : "live.text[6]",
							"parameter_mmax" : 1,
							"parameter_shortname" : "live.text",
							"parameter_type" : 2
						}

					}
,
					"text" : "5",
					"varname" : "live.text[6]"
				}

			}
, 			{
				"box" : 				{
					"id" : "obj-21",
					"maxclass" : "live.text",
					"mode" : 0,
					"numinlets" : 1,
					"numoutlets" : 2,
					"outlettype" : [ "", "" ],
					"parameter_enable" : 1,
					"patching_rect" : [ 650.0, 154.368411269432045, 17.0, 17.0 ],
					"presentation" : 1,
					"presentation_rect" : [ 163.787233829498291, 75.708836820369697, 17.0, 17.0 ],
					"saved_attribute_attributes" : 					{
						"valueof" : 						{
							"parameter_enum" : [ "val1", "val2" ],
							"parameter_longname" : "live.text[7]",
							"parameter_mmax" : 1,
							"parameter_shortname" : "live.text",
							"parameter_type" : 2
						}

					}
,
					"text" : "7",
					"varname" : "live.text[7]"
				}

			}
, 			{
				"box" : 				{
					"id" : "obj-16",
					"maxclass" : "live.text",
					"mode" : 0,
					"numinlets" : 1,
					"numoutlets" : 2,
					"outlettype" : [ "", "" ],
					"parameter_enable" : 1,
					"patching_rect" : [ 531.0, 154.368411269432045, 17.0, 17.0 ],
					"presentation" : 1,
					"presentation_rect" : [ 44.787233829498291, 75.708836820369697, 17.0, 17.0 ],
					"saved_attribute_attributes" : 					{
						"valueof" : 						{
							"parameter_enum" : [ "val1", "val2" ],
							"parameter_longname" : "live.text[2]",
							"parameter_mmax" : 1,
							"parameter_shortname" : "live.text",
							"parameter_type" : 2
						}

					}
,
					"text" : "0",
					"varname" : "live.text[2]"
				}

			}
, 			{
				"box" : 				{
					"id" : "obj-17",
					"maxclass" : "live.text",
					"mode" : 0,
					"numinlets" : 1,
					"numoutlets" : 2,
					"outlettype" : [ "", "" ],
					"parameter_enable" : 1,
					"patching_rect" : [ 599.0, 154.368411269432045, 17.0, 17.0 ],
					"presentation" : 1,
					"presentation_rect" : [ 112.787233829498291, 75.708836820369697, 17.0, 17.0 ],
					"saved_attribute_attributes" : 					{
						"valueof" : 						{
							"parameter_enum" : [ "val1", "val2" ],
							"parameter_longname" : "live.text[3]",
							"parameter_mmax" : 1,
							"parameter_shortname" : "live.text",
							"parameter_type" : 2
						}

					}
,
					"text" : "4",
					"varname" : "live.text[3]"
				}

			}
, 			{
				"box" : 				{
					"id" : "obj-15",
					"maxclass" : "live.text",
					"mode" : 0,
					"numinlets" : 1,
					"numoutlets" : 2,
					"outlettype" : [ "", "" ],
					"parameter_enable" : 1,
					"patching_rect" : [ 582.0, 154.368411269432045, 17.0, 17.0 ],
					"presentation" : 1,
					"presentation_rect" : [ 95.787233829498291, 75.708836820369697, 17.0, 17.0 ],
					"saved_attribute_attributes" : 					{
						"valueof" : 						{
							"parameter_enum" : [ "val1", "val2" ],
							"parameter_longname" : "live.text[1]",
							"parameter_mmax" : 1,
							"parameter_shortname" : "live.text",
							"parameter_type" : 2
						}

					}
,
					"text" : "3",
					"varname" : "live.text[1]"
				}

			}
, 			{
				"box" : 				{
					"id" : "obj-14",
					"maxclass" : "live.text",
					"mode" : 0,
					"numinlets" : 1,
					"numoutlets" : 2,
					"outlettype" : [ "", "" ],
					"parameter_enable" : 1,
					"patching_rect" : [ 633.0, 154.368411269432045, 17.0, 17.0 ],
					"presentation" : 1,
					"presentation_rect" : [ 146.787233829498291, 75.708836820369697, 17.0, 17.0 ],
					"saved_attribute_attributes" : 					{
						"valueof" : 						{
							"parameter_enum" : [ "val1", "val2" ],
							"parameter_longname" : "live.text",
							"parameter_mmax" : 1,
							"parameter_shortname" : "live.text",
							"parameter_type" : 2
						}

					}
,
					"text" : "6",
					"varname" : "live.text"
				}

			}
, 			{
				"box" : 				{
					"id" : "obj-127",
					"maxclass" : "number",
					"maximum" : 8,
					"minimum" : 0,
					"numinlets" : 1,
					"numoutlets" : 2,
					"outlettype" : [ "", "bang" ],
					"parameter_enable" : 0,
					"patching_rect" : [ 531.0, 238.15789270401001, 50.0, 22.0 ]
				}

			}
, 			{
				"box" : 				{
					"id" : "obj-128",
					"maxclass" : "newobj",
					"numinlets" : 1,
					"numoutlets" : 2,
					"outlettype" : [ "bang", "int" ],
					"patching_rect" : [ 531.0, 267.499997973442078, 29.5, 22.0 ],
					"text" : "t b i"
				}

			}
, 			{
				"box" : 				{
					"id" : "obj-129",
					"maxclass" : "newobj",
					"numinlets" : 4,
					"numoutlets" : 1,
					"outlettype" : [ "" ],
					"patching_rect" : [ 583.999956191734327, 306.15789270401001, 74.0, 22.0 ],
					"text" : "pack 0 0 0 0"
				}

			}
, 			{
				"box" : 				{
					"id" : "obj-130",
					"maxclass" : "message",
					"numinlets" : 2,
					"numoutlets" : 1,
					"outlettype" : [ "" ],
					"patching_rect" : [ 583.999956191734327, 353.368419885635376, 129.0, 22.0 ],
					"text" : "setOctave $2 $3 $4 $1"
				}

			}
, 			{
				"box" : 				{
					"format" : 6,
					"id" : "obj-131",
					"maxclass" : "flonum",
					"maximum" : 1.0,
					"minimum" : 0.0,
					"numinlets" : 1,
					"numoutlets" : 2,
					"outlettype" : [ "", "bang" ],
					"parameter_enable" : 0,
					"patching_rect" : [ 451.315787434577942, 313.15789270401001, 50.0, 22.0 ]
				}

			}
, 			{
				"box" : 				{
					"id" : "obj-132",
					"maxclass" : "newobj",
					"numinlets" : 1,
					"numoutlets" : 2,
					"outlettype" : [ "bang", "float" ],
					"patching_rect" : [ 356.0, 278.315787792205811, 29.5, 22.0 ],
					"text" : "t b f"
				}

			}
, 			{
				"box" : 				{
					"id" : "obj-133",
					"maxclass" : "newobj",
					"numinlets" : 4,
					"numoutlets" : 1,
					"outlettype" : [ "" ],
					"patching_rect" : [ 366.5, 313.15789270401001, 77.0, 22.0 ],
					"text" : "pack 1. 0 0 0"
				}

			}
, 			{
				"box" : 				{
					"id" : "obj-134",
					"maxclass" : "message",
					"numinlets" : 2,
					"numoutlets" : 1,
					"outlettype" : [ "" ],
					"patching_rect" : [ 366.5, 353.368419885635376, 158.0, 22.0 ],
					"text" : "setProbability $2 $3 $4 $1"
				}

			}
, 			{
				"box" : 				{
					"id" : "obj-121",
					"maxclass" : "number",
					"maximum" : 11,
					"minimum" : 0,
					"numinlets" : 1,
					"numoutlets" : 2,
					"outlettype" : [ "", "bang" ],
					"parameter_enable" : 0,
					"patching_rect" : [ 293.315787434577942, 313.15789270401001, 50.0, 22.0 ]
				}

			}
, 			{
				"box" : 				{
					"id" : "obj-62",
					"maxclass" : "kslider",
					"numinlets" : 2,
					"numoutlets" : 2,
					"offset" : 0,
					"outlettype" : [ "int", "int" ],
					"parameter_enable" : 0,
					"patching_rect" : [ 129.5, 187.868411269432045, 84.0, 53.0 ],
					"presentation" : 1,
					"presentation_rect" : [ 56.734042286872864, 4.645007040744758, 112.0, 68.0 ],
					"range" : 12
				}

			}
, 			{
				"box" : 				{
					"id" : "obj-51",
					"maxclass" : "newobj",
					"numinlets" : 1,
					"numoutlets" : 2,
					"outlettype" : [ "bang", "int" ],
					"patching_rect" : [ 203.0, 283.499997973442078, 29.5, 22.0 ],
					"text" : "t b i"
				}

			}
, 			{
				"box" : 				{
					"id" : "obj-53",
					"maxclass" : "newobj",
					"numinlets" : 4,
					"numoutlets" : 1,
					"outlettype" : [ "" ],
					"patching_rect" : [ 213.5, 313.15789270401001, 74.0, 22.0 ],
					"text" : "pack 0 0 0 0"
				}

			}
, 			{
				"box" : 				{
					"id" : "obj-54",
					"maxclass" : "message",
					"numinlets" : 2,
					"numoutlets" : 1,
					"outlettype" : [ "" ],
					"patching_rect" : [ 213.5, 353.368419885635376, 118.0, 22.0 ],
					"text" : "setPitch $2 $3 $4 $1"
				}

			}
, 			{
				"box" : 				{
					"id" : "obj-48",
					"maxclass" : "newobj",
					"numinlets" : 1,
					"numoutlets" : 2,
					"outlettype" : [ "bang", "int" ],
					"patching_rect" : [ 56.0, 278.315787792205811, 29.5, 22.0 ],
					"text" : "t b i"
				}

			}
, 			{
				"box" : 				{
					"id" : "obj-46",
					"maxclass" : "number",
					"maximum" : 127,
					"minimum" : 0,
					"numinlets" : 1,
					"numoutlets" : 2,
					"outlettype" : [ "", "bang" ],
					"parameter_enable" : 0,
					"patching_rect" : [ 146.5, 307.499997973442078, 50.0, 22.0 ]
				}

			}
, 			{
				"box" : 				{
					"id" : "obj-39",
					"maxclass" : "newobj",
					"numinlets" : 4,
					"numoutlets" : 1,
					"outlettype" : [ "" ],
					"patching_rect" : [ 66.5, 313.15789270401001, 74.0, 22.0 ],
					"text" : "pack 0 0 0 0"
				}

			}
, 			{
				"box" : 				{
					"id" : "obj-40",
					"maxclass" : "message",
					"numinlets" : 2,
					"numoutlets" : 1,
					"outlettype" : [ "" ],
					"patching_rect" : [ 66.5, 353.368419885635376, 133.0, 22.0 ],
					"text" : "setVelocity $2 $3 $4 $1"
				}

			}
, 			{
				"box" : 				{
					"comment" : "Row",
					"id" : "obj-5",
					"index" : 0,
					"maxclass" : "inlet",
					"numinlets" : 0,
					"numoutlets" : 1,
					"outlettype" : [ "" ],
					"patching_rect" : [ 7.499956191734327, 6.000003269432057, 30.0, 30.0 ]
				}

			}
, 			{
				"box" : 				{
					"comment" : "Column",
					"id" : "obj-7",
					"index" : 0,
					"maxclass" : "inlet",
					"numinlets" : 0,
					"numoutlets" : 1,
					"outlettype" : [ "" ],
					"patching_rect" : [ 44.499956191734327, 6.000003269432057, 30.0, 30.0 ]
				}

			}
, 			{
				"box" : 				{
					"comment" : "",
					"id" : "obj-9",
					"index" : 0,
					"maxclass" : "outlet",
					"numinlets" : 1,
					"numoutlets" : 0,
					"patching_rect" : [ 7.499956191734327, 441.368411269432045, 30.0, 30.0 ]
				}

			}
, 			{
				"box" : 				{
					"comment" : "",
					"id" : "obj-10",
					"index" : 0,
					"maxclass" : "outlet",
					"numinlets" : 1,
					"numoutlets" : 0,
					"patching_rect" : [ 56.999956191734327, 441.368411269432045, 30.0, 30.0 ]
				}

			}
 ],
		"lines" : [ 			{
				"patchline" : 				{
					"destination" : [ "obj-6", 0 ],
					"source" : [ "obj-1", 1 ]
				}

			}
, 			{
				"patchline" : 				{
					"destination" : [ "obj-51", 0 ],
					"midpoints" : [ 302.815787434577942, 336.0, 288.0, 336.0, 288.0, 270.0, 212.5, 270.0 ],
					"source" : [ "obj-121", 0 ]
				}

			}
, 			{
				"patchline" : 				{
					"destination" : [ "obj-128", 0 ],
					"midpoints" : [ 540.5, 261.0, 540.5, 261.0 ],
					"source" : [ "obj-127", 0 ]
				}

			}
, 			{
				"patchline" : 				{
					"destination" : [ "obj-129", 0 ],
					"midpoints" : [ 551.0, 300.0, 593.499956191734327, 300.0 ],
					"source" : [ "obj-128", 1 ]
				}

			}
, 			{
				"patchline" : 				{
					"destination" : [ "obj-9", 0 ],
					"midpoints" : [ 540.5, 426.0, 16.999956191734327, 426.0 ],
					"source" : [ "obj-128", 0 ]
				}

			}
, 			{
				"patchline" : 				{
					"destination" : [ "obj-130", 0 ],
					"midpoints" : [ 593.499956191734327, 330.0, 593.499956191734327, 330.0 ],
					"source" : [ "obj-129", 0 ]
				}

			}
, 			{
				"patchline" : 				{
					"destination" : [ "obj-10", 0 ],
					"midpoints" : [ 593.499956191734327, 426.0, 66.499956191734327, 426.0 ],
					"source" : [ "obj-130", 0 ]
				}

			}
, 			{
				"patchline" : 				{
					"destination" : [ "obj-132", 0 ],
					"midpoints" : [ 460.815787434577942, 336.0, 447.0, 336.0, 447.0, 264.0, 365.5, 264.0 ],
					"source" : [ "obj-131", 0 ]
				}

			}
, 			{
				"patchline" : 				{
					"destination" : [ "obj-133", 0 ],
					"midpoints" : [ 376.0, 303.0, 376.0, 303.0 ],
					"source" : [ "obj-132", 1 ]
				}

			}
, 			{
				"patchline" : 				{
					"destination" : [ "obj-9", 0 ],
					"midpoints" : [ 365.5, 303.0, 351.0, 303.0, 351.0, 426.0, 16.999956191734327, 426.0 ],
					"source" : [ "obj-132", 0 ]
				}

			}
, 			{
				"patchline" : 				{
					"destination" : [ "obj-134", 0 ],
					"midpoints" : [ 376.0, 336.0, 376.0, 336.0 ],
					"source" : [ "obj-133", 0 ]
				}

			}
, 			{
				"patchline" : 				{
					"destination" : [ "obj-10", 0 ],
					"midpoints" : [ 376.0, 426.0, 66.499956191734327, 426.0 ],
					"source" : [ "obj-134", 0 ]
				}

			}
, 			{
				"patchline" : 				{
					"destination" : [ "obj-22", 0 ],
					"midpoints" : [ 643.5, 189.0, 540.5, 189.0 ],
					"source" : [ "obj-14", 1 ]
				}

			}
, 			{
				"patchline" : 				{
					"destination" : [ "obj-22", 0 ],
					"midpoints" : [ 592.5, 189.0, 540.5, 189.0 ],
					"source" : [ "obj-15", 1 ]
				}

			}
, 			{
				"patchline" : 				{
					"destination" : [ "obj-22", 0 ],
					"midpoints" : [ 541.5, 174.0, 540.5, 174.0 ],
					"source" : [ "obj-16", 1 ]
				}

			}
, 			{
				"patchline" : 				{
					"destination" : [ "obj-22", 0 ],
					"midpoints" : [ 609.5, 189.0, 540.5, 189.0 ],
					"source" : [ "obj-17", 1 ]
				}

			}
, 			{
				"patchline" : 				{
					"destination" : [ "obj-22", 0 ],
					"midpoints" : [ 558.5, 189.0, 540.5, 189.0 ],
					"source" : [ "obj-18", 1 ]
				}

			}
, 			{
				"patchline" : 				{
					"destination" : [ "obj-22", 0 ],
					"midpoints" : [ 575.5, 189.0, 540.5, 189.0 ],
					"source" : [ "obj-19", 1 ]
				}

			}
, 			{
				"patchline" : 				{
					"destination" : [ "obj-6", 0 ],
					"source" : [ "obj-2", 1 ]
				}

			}
, 			{
				"patchline" : 				{
					"destination" : [ "obj-22", 0 ],
					"midpoints" : [ 626.5, 189.0, 540.5, 189.0 ],
					"source" : [ "obj-20", 1 ]
				}

			}
, 			{
				"patchline" : 				{
					"destination" : [ "obj-22", 0 ],
					"midpoints" : [ 660.5, 189.0, 540.5, 189.0 ],
					"source" : [ "obj-21", 1 ]
				}

			}
, 			{
				"patchline" : 				{
					"destination" : [ "obj-127", 0 ],
					"midpoints" : [ 540.5, 228.0, 540.5, 228.0 ],
					"source" : [ "obj-22", 0 ]
				}

			}
, 			{
				"patchline" : 				{
					"destination" : [ "obj-129", 3 ],
					"midpoints" : [ 349.5, 189.0, 648.499956191734327, 189.0 ],
					"order" : 0,
					"source" : [ "obj-24", 0 ]
				}

			}
, 			{
				"patchline" : 				{
					"destination" : [ "obj-133", 3 ],
					"midpoints" : [ 349.5, 264.0, 434.0, 264.0 ],
					"order" : 1,
					"source" : [ "obj-24", 0 ]
				}

			}
, 			{
				"patchline" : 				{
					"destination" : [ "obj-39", 3 ],
					"midpoints" : [ 349.5, 264.0, 131.0, 264.0 ],
					"order" : 3,
					"source" : [ "obj-24", 0 ]
				}

			}
, 			{
				"patchline" : 				{
					"destination" : [ "obj-53", 3 ],
					"midpoints" : [ 349.5, 264.0, 278.0, 264.0 ],
					"order" : 2,
					"source" : [ "obj-24", 0 ]
				}

			}
, 			{
				"patchline" : 				{
					"destination" : [ "obj-131", 0 ],
					"source" : [ "obj-26", 0 ]
				}

			}
, 			{
				"patchline" : 				{
					"destination" : [ "obj-6", 0 ],
					"source" : [ "obj-3", 1 ]
				}

			}
, 			{
				"patchline" : 				{
					"destination" : [ "obj-40", 0 ],
					"midpoints" : [ 76.0, 336.0, 76.0, 336.0 ],
					"source" : [ "obj-39", 0 ]
				}

			}
, 			{
				"patchline" : 				{
					"destination" : [ "obj-6", 0 ],
					"source" : [ "obj-4", 1 ]
				}

			}
, 			{
				"patchline" : 				{
					"destination" : [ "obj-10", 0 ],
					"midpoints" : [ 76.0, 426.0, 66.499956191734327, 426.0 ],
					"source" : [ "obj-40", 0 ]
				}

			}
, 			{
				"patchline" : 				{
					"destination" : [ "obj-48", 0 ],
					"midpoints" : [ 156.0, 330.0, 141.0, 330.0, 141.0, 264.0, 65.5, 264.0 ],
					"source" : [ "obj-46", 0 ]
				}

			}
, 			{
				"patchline" : 				{
					"destination" : [ "obj-39", 0 ],
					"midpoints" : [ 76.0, 303.0, 76.0, 303.0 ],
					"source" : [ "obj-48", 1 ]
				}

			}
, 			{
				"patchline" : 				{
					"destination" : [ "obj-9", 0 ],
					"midpoints" : [ 65.5, 303.0, 16.999956191734327, 303.0 ],
					"source" : [ "obj-48", 0 ]
				}

			}
, 			{
				"patchline" : 				{
					"destination" : [ "obj-129", 1 ],
					"midpoints" : [ 16.999956191734327, 174.0, 516.0, 174.0, 516.0, 189.0, 612.0, 189.0, 612.0, 300.0, 611.833289525067698, 300.0 ],
					"order" : 0,
					"source" : [ "obj-5", 0 ]
				}

			}
, 			{
				"patchline" : 				{
					"destination" : [ "obj-133", 1 ],
					"midpoints" : [ 16.999956191734327, 264.0, 396.0, 264.0, 396.0, 309.0, 395.333333333333314, 309.0 ],
					"order" : 1,
					"source" : [ "obj-5", 0 ]
				}

			}
, 			{
				"patchline" : 				{
					"destination" : [ "obj-39", 1 ],
					"midpoints" : [ 16.999956191734327, 264.0, 96.0, 264.0, 96.0, 309.0, 94.333333333333329, 309.0 ],
					"order" : 3,
					"source" : [ "obj-5", 0 ]
				}

			}
, 			{
				"patchline" : 				{
					"destination" : [ "obj-53", 1 ],
					"midpoints" : [ 16.999956191734327, 264.0, 243.0, 264.0, 243.0, 309.0, 241.333333333333343, 309.0 ],
					"order" : 2,
					"source" : [ "obj-5", 0 ]
				}

			}
, 			{
				"patchline" : 				{
					"destination" : [ "obj-53", 0 ],
					"midpoints" : [ 223.0, 306.0, 223.0, 306.0 ],
					"source" : [ "obj-51", 1 ]
				}

			}
, 			{
				"patchline" : 				{
					"destination" : [ "obj-9", 0 ],
					"midpoints" : [ 212.5, 426.0, 16.999956191734327, 426.0 ],
					"source" : [ "obj-51", 0 ]
				}

			}
, 			{
				"patchline" : 				{
					"destination" : [ "obj-54", 0 ],
					"midpoints" : [ 223.0, 336.0, 223.0, 336.0 ],
					"source" : [ "obj-53", 0 ]
				}

			}
, 			{
				"patchline" : 				{
					"destination" : [ "obj-10", 0 ],
					"midpoints" : [ 223.0, 426.0, 66.499956191734327, 426.0 ],
					"source" : [ "obj-54", 0 ]
				}

			}
, 			{
				"patchline" : 				{
					"destination" : [ "obj-8", 0 ],
					"source" : [ "obj-6", 0 ]
				}

			}
, 			{
				"patchline" : 				{
					"destination" : [ "obj-121", 0 ],
					"midpoints" : [ 139.0, 270.0, 302.815787434577942, 270.0 ],
					"source" : [ "obj-62", 0 ]
				}

			}
, 			{
				"patchline" : 				{
					"destination" : [ "obj-46", 0 ],
					"midpoints" : [ 204.0, 270.0, 156.0, 270.0 ],
					"source" : [ "obj-62", 1 ]
				}

			}
, 			{
				"patchline" : 				{
					"destination" : [ "obj-129", 2 ],
					"midpoints" : [ 53.999956191734327, 174.0, 516.0, 174.0, 516.0, 189.0, 630.166622858400956, 189.0 ],
					"order" : 0,
					"source" : [ "obj-7", 0 ]
				}

			}
, 			{
				"patchline" : 				{
					"destination" : [ "obj-133", 2 ],
					"midpoints" : [ 53.999956191734327, 264.0, 414.666666666666686, 264.0 ],
					"order" : 1,
					"source" : [ "obj-7", 0 ]
				}

			}
, 			{
				"patchline" : 				{
					"destination" : [ "obj-39", 2 ],
					"midpoints" : [ 53.999956191734327, 264.0, 112.666666666666657, 264.0 ],
					"order" : 3,
					"source" : [ "obj-7", 0 ]
				}

			}
, 			{
				"patchline" : 				{
					"destination" : [ "obj-53", 2 ],
					"midpoints" : [ 53.999956191734327, 264.0, 259.666666666666686, 264.0 ],
					"order" : 2,
					"source" : [ "obj-7", 0 ]
				}

			}
, 			{
				"patchline" : 				{
					"destination" : [ "obj-24", 0 ],
					"source" : [ "obj-8", 0 ]
				}

			}
 ],
		"parameters" : 		{
			"obj-1" : [ "live.text[8]", "live.text", 0 ],
			"obj-14" : [ "live.text", "live.text", 0 ],
			"obj-15" : [ "live.text[1]", "live.text", 0 ],
			"obj-16" : [ "live.text[2]", "live.text", 0 ],
			"obj-17" : [ "live.text[3]", "live.text", 0 ],
			"obj-18" : [ "live.text[4]", "live.text", 0 ],
			"obj-19" : [ "live.text[5]", "live.text", 0 ],
			"obj-2" : [ "live.text[9]", "live.text", 0 ],
			"obj-20" : [ "live.text[6]", "live.text", 0 ],
			"obj-21" : [ "live.text[7]", "live.text", 0 ],
			"obj-26" : [ "Probability", "prob", 0 ],
			"obj-3" : [ "live.text[10]", "live.text", 0 ],
			"obj-4" : [ "live.text[11]", "live.text", 0 ],
			"parameterbanks" : 			{

			}
,
			"inherited_shortname" : 1
		}
,
		"dependency_cache" : [  ],
		"autosave" : 0
	}

}
